#!OML:ASF F:\VICON\USERDATA\INSTALL\rory3\rory3.ASF
:FULLY-SPECIFIED
:DEGREES
2308
root 0.10903 17.4605 0.135157 5.2574 0.43615 -2.44837
lowerback -6.42057 -0.203515 -0.890172
upperback -3.45915 -0.233399 1.74089
thorax 0.0470777 -0.0906845 2.27536
lowerneck -15.5635 -12.4744 -16.4204
upperneck 32.945 -19.2294 14.0348
head 18.1508 -8.39473 4.92931
rclavicle 1.22936e-014 2.68359e-015
rhumerus -34.2083 -8.9461 -82.1785
rradius 19.7237
rwrist 36.9596
rhand -10.3694 14.6324
rfingers 7.12502
rthumb 15.6279 -14.7564
lclavicle 1.22936e-014 2.68359e-015
lhumerus 327.831 -1.18849 -267.35
lradius 15.9136
lwrist -24.5408
lhand -10.7312 20.7313
lfingers 7.12502
lthumb 15.2794 50.1469
rfemur 4.11342 12.4636 21.5758
rtibia -2.38542e-014
rfoot -7.11732 -12.5268
rtoes -14.2527
lfemur -4.88363 -21.9745 -16.4255
ltibia 15.7532
lfoot -15.6315 16.7904
ltoes -17.0555
2309
root 0.108936 17.4608 0.132899 5.28287 0.444095 -2.42044
lowerback -6.48359 -0.209652 -0.911817
upperback -3.42452 -0.240626 1.73454
thorax 0.118051 -0.0949393 2.2804
lowerneck -15.6594 -12.468 -16.41
upperneck 32.9774 -19.2175 14.0441
head 18.1909 -8.38159 4.93258
rclavicle 2.90723e-015 6.75868e-015
rhumerus -34.1297 -8.92586 -82.2038
rradius 19.7061
rwrist 36.9166
rhand -10.3489 14.5832
rfingers 7.12502
rthumb 15.6477 -14.804
lclavicle 2.90723e-015 6.75868e-015
lhumerus 327.928 -1.16005 -267.367
lradius 15.8718
lwrist -24.5475
lhand -10.6761 20.6848
lfingers 7.12502
lthumb 15.3325 50.0964
rfemur 4.07971 12.4542 21.533
rtibia -3.18055e-015
rfoot -7.13914 -12.511
rtoes -13.9887
lfemur -4.92289 -21.9685 -16.4442
ltibia 15.7653
lfoot -15.6232 16.8073
ltoes -17.5748
2310
root 0.109299 17.4615 0.131144 5.30132 0.450556 -2.41681
lowerback -6.47948 -0.203091 -0.900329
upperback -3.43095 -0.232411 1.72781
thorax 0.108721 -0.0908904 2.26754
lowerneck -15.6891 -12.4659 -16.3964
upperneck 33.0046 -19.2175 14.0394
head 18.211 -8.37836 4.92838
rclavicle -9.44227e-016 -1.20265e-014
rhumerus -34.1341 -9.08396 -82.1189
rradius 19.6809
rwrist 37.0476
rhand -10.377 14.6754
rfingers 7.12502
rthumb 15.6206 -14.714
lclavicle -9.44227e-016 -1.20265e-014
lhumerus 327.917 -1.17749 -267.36
lradius 15.8773
lwrist -24.569
lhand -10.7712 20.5879
lfingers 7.12502
lthumb 15.2409 50.0065
rfemur 4.04946 12.4484 21.5227
rtibia 7.95139e-015
rfoot -7.13695 -12.4939
rtoes -13.8351
lfemur -4.94812 -21.9666 -16.4402
ltibia 15.7743
lfoot -15.6917 16.8321
ltoes -17.585
2311
root 0.109049 17.4616 0.129686 5.2921 0.444191 -2.44851
lowerback -6.45235 -0.194305 -0.87099
upperback -3.43104 -0.222431 1.73778
thorax 0.0930891 -0.0860452 2.26197
lowerneck -15.6598 -12.4615 -16.343
upperneck 32.9632 -19.2063 14.0008
head 18.1619 -8.37347 4.90325
rclavicle -8.47941e-015 -9.93923e-017
rhumerus -34.143 -9.03137 -82.1471
rradius 19.6835
rwrist 36.9403
rhand -10.3931 14.6191
rfingers 7.12502
rthumb 15.6051 -14.7714
lclavicle -8.47941e-015 -9.93923e-017
lhumerus 327.901 -1.26803 -267.315
lradius 15.9006
lwrist -24.4651
lhand -10.9032 20.5672
lfingers 7.12502
lthumb 15.1137 49.9953
rfemur 4.05286 12.4577 21.5563
rtibia -1.11319e-014
rfoot -7.1183 -12.4627
rtoes -13.8246
lfemur -4.93736 -21.9357 -16.4057
ltibia 15.7694
lfoot -15.793 16.8199
ltoes -17.534
2312
root 0.109335 17.4615 0.126733 5.30344 0.437894 -2.45213
lowerback -6.48342 -0.18538 -0.866793
upperback -3.40197 -0.211114 1.74341
thorax 0.139753 -0.0809848 2.26608
lowerneck -15.6974 -12.4613 -16.3361
upperneck 32.9623 -19.2057 14.0117
head 18.1719 -8.36871 4.90572
rclavicle 7.15625e-015 1.0635e-014
rhumerus -34.0993 -8.90329 -82.2255
rradius 19.7283
rwrist 36.7188
rhand -10.64 14.5458
rfingers 7.12502
rthumb 15.3673 -14.8631
lclavicle 7.15625e-015 1.0635e-014
lhumerus 327.949 -1.37521 -267.25
lradius 15.9187
lwrist -24.3025
lhand -10.9327 20.5872
lfingers 7.12502
lthumb 15.0854 50.0175
rfemur 4.02928 12.4652 21.5521
rtibia 0
rfoot -7.09547 -12.4938
rtoes -13.4319
lfemur -4.97962 -21.9197 -16.3903
ltibia 15.7788
lfoot -15.767 16.8282
ltoes -17.8815
2313
root 0.109143 17.4609 0.122994 5.3326 0.448136 -2.45185
lowerback -6.48167 -0.187262 -0.879603
upperback -3.40892 -0.212977 1.76329
thorax 0.13177 -0.0814815 2.29369
lowerneck -15.715 -12.4616 -16.3745
upperneck 32.97 -19.1998 14.0296
head 18.1886 -8.36785 4.9217
rclavicle -7.82715e-016 -1.2424e-014
rhumerus -34.0904 -8.87868 -82.2078
rradius 19.717
rwrist 36.6594
rhand -10.9174 14.6261
rfingers 7.12502
rthumb 15.1001 -14.8031
lclavicle -7.82715e-016 -1.2424e-014
lhumerus 327.975 -1.23773 -267.272
lradius 15.9136
lwrist -24.471
lhand -10.8287 20.5857
lfingers 7.12502
lthumb 15.1855 50.0084
rfemur 3.98206 12.4565 21.5426
rtibia 4.77083e-015
rfoot -7.07201 -12.522
rtoes -13.0185
lfemur -5.04822 -21.9432 -16.3674
ltibia 15.7942
lfoot -15.6312 16.8713
ltoes -18.3509
2314
root 0.108535 17.4612 0.121261 5.31328 0.460376 -2.48191
lowerback -6.45144 -0.188465 -0.842523
upperback -3.39805 -0.216807 1.77073
thorax 0.126333 -0.0838234 2.28023
lowerneck -15.7539 -12.4548 -16.3408
upperneck 32.9856 -19.1832 13.9985
head 18.1923 -8.358 4.90483
rclavicle 1.30887e-014 2.03754e-014
rhumerus -34.0832 -8.92824 -82.1885
rradius 19.7095
rwrist 36.7505
rhand -10.8823 14.5998
rfingers 7.12502
rthumb 15.1338 -14.8269
lclavicle 1.30887e-014 2.03754e-014
lhumerus 328.008 -0.911217 -267.459
lradius 15.9194
lwrist -24.9965
lhand -10.6291 20.3733
lfingers 7.12502
lthumb 15.3777 49.7814
rfemur 3.98057 12.4475 21.5832
rtibia 1.59028e-014
rfoot -7.14661 -12.5231
rtoes -13.8592
lfemur -5.0413 -21.9777 -16.3347
ltibia 15.8234
lfoot -15.7264 16.8261
ltoes -17.9248
2315
root 0.108095 17.4608 0.12034 5.28745 0.469547 -2.48413
lowerback -6.46059 -0.186775 -0.844814
upperback -3.36317 -0.214815 1.77323
thorax 0.167263 -0.0833718 2.28417
lowerneck -15.7777 -12.4532 -16.3156
upperneck 32.9785 -19.1788 13.989
head 18.1878 -8.35263 4.89591
rclavicle -1.31074e-014 5.06901e-015
rhumerus -34.0492 -9.00934 -82.1537
rradius 19.705
rwrist 36.8546
rhand -10.8005 14.5716
rfingers 7.12502
rthumb 15.2126 -14.8491
lclavicle -1.31074e-014 5.06901e-015
lhumerus 328.038 -0.872793 -267.488
lradius 15.9598
lwrist -25.114
lhand -10.5865 20.3782
lfingers 7.12502
lthumb 15.4188 49.7832
rfemur 3.97574 12.4392 21.5862
rtibia -1.59028e-015
rfoot -7.32729 -12.473
rtoes -14.6826
lfemur -5.02814 -21.9675 -16.3398
ltibia 15.8698
lfoot -15.8473 16.7539
ltoes -17.5562
2316
root 0.109119 17.4601 0.118852 5.26786 0.49256 -2.52689
lowerback -6.42598 -0.181219 -0.802702
upperback -3.36517 -0.209852 1.79304
thorax 0.145745 -0.0810301 2.28124
lowerneck -15.7889 -12.4502 -16.3171
upperneck 33.025 -19.178 13.9812
head 18.2155 -8.3522 4.89488
rclavicle -1.41199e-014 3.97569e-016
rhumerus -34.0722 -9.0117 -82.1226
rradius 19.7028
rwrist 36.842
rhand -10.7053 14.5467
rfingers 7.12502
rthumb 15.3044 -14.867
lclavicle -1.41199e-014 3.97569e-016
lhumerus 328.021 -0.819107 -267.493
lradius 15.9462
lwrist -25.1803
lhand -10.5329 20.3263
lfingers 7.12502
lthumb 15.4705 49.7273
rfemur 3.97521 12.4206 21.6263
rtibia 6.36111e-015
rfoot -7.43043 -12.4397
rtoes -14.7304
lfemur -5.02654 -22.0145 -16.3033
ltibia 15.8987
lfoot -15.8265 16.7959
ltoes -17.7463
2317
root 0.10962 17.4612 0.116662 5.27615 0.502206 -2.52942
lowerback -6.39724 -0.175344 -0.793856
upperback -3.38376 -0.202297 1.79601
thorax 0.110304 -0.0769049 2.27985
lowerneck -15.7859 -12.448 -16.3178
upperneck 33.0583 -19.1744 13.9642
head 18.2297 -8.35254 4.88994
rclavicle -1.1045e-014 -7.55382e-015
rhumerus -34.1005 -9.08678 -82.0674
rradius 19.6566
rwrist 36.9639
rhand -11.1786 14.7058
rfingers 7.12502
rthumb 14.8484 -14.7421
lclavicle -1.1045e-014 -7.55382e-015
lhumerus 328.003 -0.795884 -267.496
lradius 15.8961
lwrist -25.2296
lhand -10.6516 20.1323
lfingers 7.12502
lthumb 15.3561 49.5421
rfemur 3.96237 12.4117 21.6247
rtibia 1.11319e-014
rfoot -7.43296 -12.4615
rtoes -14.8086
lfemur -5.04872 -21.9961 -16.2915
ltibia 15.8733
lfoot -15.7031 16.7642
ltoes -17.5468
2318
root 0.110341 17.4629 0.115294 5.30306 0.496505 -2.46063
lowerback -6.40579 -0.190706 -0.849568
upperback -3.39729 -0.21947 1.78401
thorax 0.101976 -0.0847624 2.29776
lowerneck -15.8121 -12.4143 -16.3031
upperneck 33.0994 -19.1152 13.9319
head 18.2373 -8.32902 4.88923
rclavicle 1.32316e-014 3.37934e-015
rhumerus -34.0933 -8.94533 -82.1354
rradius 19.6206
rwrist 36.8371
rhand -11.7479 14.8225
rfingers 7.12502
rthumb 14.2999 -14.6651
lclavicle 1.32316e-014 3.37934e-015
lhumerus 327.996 -0.739542 -267.524
lradius 15.8452
lwrist -25.3056
lhand -10.6392 20.0713
lfingers 7.12502
lthumb 15.368 49.4801
rfemur 3.93976 12.4116 21.5436
rtibia -6.36111e-015
rfoot -7.33126 -12.4947
rtoes -15.2
lfemur -5.05213 -22.018 -16.361
ltibia 15.8167
lfoot -15.6415 16.7285
ltoes -16.9715
